<svg width="24" height="24" viewBox="0 0 24 24" fill="none" xmlns="http://www.w3.org/2000/svg">
<g clip-path="url(#clip0)">
<path fill-rule="evenodd" clip-rule="evenodd" d="M18.96 0.96C16.8 0.108 14.232 0 12 0C9.768 0 7.2 0.108 5.04 0.96C1.836 2.208 0 4.86 0 8.232V24H24V8.232C24 4.86 22.164 2.208 18.96 0.96ZM8.604 21.6L10.404 19.8H13.596L15.396 21.6H8.604ZM6.012 14.4V8.4H18.012V14.4H6.012ZM17.4 16.8C17.4 17.46 16.86 18 16.2 18C15.54 18 15 17.46 15 16.8C15 16.14 15.54 15.6 16.2 15.6C16.86 15.6 17.4 16.14 17.4 16.8ZM7.8 15.6C8.46 15.6 9 16.14 9 16.8C9 17.46 8.46 18 7.8 18C7.14 18 6.6 17.46 6.6 16.8C6.6 16.14 7.14 15.6 7.8 15.6ZM21.6 21.6H17.4V21.144L16.02 19.752C17.808 19.548 19.2 18.048 19.2 16.2V8.4C19.2 5.244 15.6 4.8 12 4.8C8.4 4.8 4.8 5.244 4.8 8.4V16.2C4.8 18.048 6.192 19.548 7.98 19.752L6.6 21.144V21.6H2.4V8.232C2.4 5.832 3.612 4.092 5.916 3.192C7.692 2.496 9.984 2.4 12 2.4C14.016 2.4 16.308 2.496 18.084 3.192C20.388 4.092 21.6 5.832 21.6 8.232V21.6Z" fill="#1D1D1D"/>
</g>
<defs>
<clipPath id="clip0">
<rect width="24" height="24" fill="white"/>
</clipPath>
</defs>
</svg>
